<svg width="30" height="30" viewBox="0 0 30 30" fill="none" xmlns="http://www.w3.org/2000/svg">
<path d="M13.5 6C13.3011 6 13.1103 6.07902 12.9697 6.21967C12.829 6.36032 12.75 6.55109 12.75 6.75C12.75 6.94891 12.829 7.13968 12.9697 7.28033C13.1103 7.42098 13.3011 7.5 13.5 7.5H16.5C16.6989 7.5 16.8897 7.42098 17.0303 7.28033C17.171 7.13968 17.25 6.94891 17.25 6.75C17.25 6.55109 17.171 6.36032 17.0303 6.21967C16.8897 6.07902 16.6989 6 16.5 6H13.5Z" fill="#FF8A1B"/>
<path d="M12 19.5C12 19.8978 11.842 20.2794 11.5607 20.5607C11.2794 20.842 10.8978 21 10.5 21C10.1022 21 9.72064 20.842 9.43934 20.5607C9.15804 20.2794 9 19.8978 9 19.5C9 19.1022 9.15804 18.7206 9.43934 18.4393C9.72064 18.158 10.1022 18 10.5 18C10.8978 18 11.2794 18.158 11.5607 18.4393C11.842 18.7206 12 19.1022 12 19.5Z" fill="#FF8A1B"/>
<path d="M19.5 21C19.8978 21 20.2794 20.842 20.5607 20.5607C20.842 20.2794 21 19.8978 21 19.5C21 19.1022 20.842 18.7206 20.5607 18.4393C20.2794 18.158 19.8978 18 19.5 18C19.1022 18 18.7206 18.158 18.4393 18.4393C18.158 18.7206 18 19.1022 18 19.5C18 19.8978 18.158 20.2794 18.4393 20.5607C18.7206 20.842 19.1022 21 19.5 21Z" fill="#FF8A1B"/>
<path d="M4.5 8.25C4.5 6.85761 5.05312 5.52226 6.03769 4.53769C7.02226 3.55312 8.35761 3 9.75 3H20.25C21.6424 3 22.9777 3.55312 23.9623 4.53769C24.9469 5.52226 25.5 6.85761 25.5 8.25V12H27C27.1989 12 27.3897 12.079 27.5303 12.2197C27.671 12.3603 27.75 12.5511 27.75 12.75C27.75 12.9489 27.671 13.1397 27.5303 13.2803C27.3897 13.421 27.1989 13.5 27 13.5H25.5V24.75C25.5 25.3467 25.2629 25.919 24.841 26.341C24.419 26.7629 23.8467 27 23.25 27H21.75C21.1533 27 20.581 26.7629 20.159 26.341C19.7371 25.919 19.5 25.3467 19.5 24.75V24H10.5V24.75C10.5 25.3467 10.2629 25.919 9.84099 26.341C9.41903 26.7629 8.84674 27 8.25 27H6.75C6.15326 27 5.58097 26.7629 5.15901 26.341C4.73705 25.919 4.5 25.3467 4.5 24.75V13.5H3C2.80109 13.5 2.61032 13.421 2.46967 13.2803C2.32902 13.1397 2.25 12.9489 2.25 12.75C2.25 12.5511 2.32902 12.3603 2.46967 12.2197C2.61032 12.079 2.80109 12 3 12H4.5V8.25ZM24 8.25C24 7.25544 23.6049 6.30161 22.9016 5.59835C22.1984 4.89509 21.2446 4.5 20.25 4.5H9.75C8.75544 4.5 7.80161 4.89509 7.09835 5.59835C6.39509 6.30161 6 7.25544 6 8.25V15H24V8.25ZM21 24V24.75C21 24.9489 21.079 25.1397 21.2197 25.2803C21.3603 25.421 21.5511 25.5 21.75 25.5H23.25C23.4489 25.5 23.6397 25.421 23.7803 25.2803C23.921 25.1397 24 24.9489 24 24.75V24H21ZM6 24V24.75C6 24.9489 6.07902 25.1397 6.21967 25.2803C6.36032 25.421 6.55109 25.5 6.75 25.5H8.25C8.44891 25.5 8.63968 25.421 8.78033 25.2803C8.92098 25.1397 9 24.9489 9 24.75V24H6ZM6 22.5H24V16.5H6V22.5Z" fill="#FF8A1B"/>
</svg>
