<svg width="28" height="28" viewBox="0 0 28 28" fill="none" xmlns="http://www.w3.org/2000/svg">
<path d="M26.25 26.25H24.5V21.875C24.4986 20.7151 24.0372 19.6031 23.2171 18.7829C22.3969 17.9628 21.2849 17.5014 20.125 17.5V15.75C21.7489 15.7519 23.3057 16.3978 24.454 17.546C25.6022 18.6943 26.2481 20.2511 26.25 21.875V26.25Z" fill="#46E184"/>
<path d="M19.25 26.25H17.5V21.875C17.4986 20.7151 17.0372 19.6031 16.2171 18.7829C15.3969 17.9628 14.2849 17.5014 13.125 17.5H7.875C6.7151 17.5014 5.60311 17.9628 4.78294 18.7829C3.96277 19.6031 3.50139 20.7151 3.5 21.875V26.25H1.75V21.875C1.75185 20.2511 2.39776 18.6943 3.54602 17.546C4.69428 16.3978 6.25112 15.7519 7.875 15.75H13.125C14.7489 15.7519 16.3057 16.3978 17.454 17.546C18.6022 18.6943 19.2481 20.2511 19.25 21.875V26.25Z" fill="#46E184"/>
<path d="M17.5 1.75V3.5C18.6603 3.5 19.7731 3.96094 20.5936 4.78141C21.4141 5.60188 21.875 6.71468 21.875 7.875C21.875 9.03532 21.4141 10.1481 20.5936 10.9686C19.7731 11.7891 18.6603 12.25 17.5 12.25V14C19.1245 14 20.6824 13.3547 21.831 12.206C22.9797 11.0574 23.625 9.49945 23.625 7.875C23.625 6.25055 22.9797 4.69263 21.831 3.54397C20.6824 2.39531 19.1245 1.75 17.5 1.75Z" fill="#46E184"/>
<path d="M10.5 3.5C11.3653 3.5 12.2112 3.75659 12.9306 4.23732C13.6501 4.71805 14.2108 5.40133 14.542 6.20076C14.8731 7.00019 14.9597 7.87985 14.7909 8.72852C14.6221 9.57719 14.2054 10.3567 13.5936 10.9686C12.9817 11.5804 12.2022 11.9971 11.3535 12.1659C10.5048 12.3347 9.62518 12.2481 8.82576 11.917C8.02633 11.5858 7.34305 11.0251 6.86232 10.3056C6.38159 9.58615 6.125 8.74029 6.125 7.875C6.125 6.71468 6.58593 5.60188 7.4064 4.78141C8.22688 3.96094 9.33967 3.5 10.5 3.5ZM10.5 1.75C9.28859 1.75 8.10438 2.10923 7.09713 2.78225C6.08988 3.45527 5.30482 4.41187 4.84123 5.53106C4.37765 6.65026 4.25635 7.88179 4.49269 9.06993C4.72902 10.2581 5.31237 11.3494 6.16897 12.206C7.02556 13.0626 8.11694 13.646 9.30507 13.8823C10.4932 14.1186 11.7247 13.9973 12.8439 13.5338C13.9631 13.0702 14.9197 12.2851 15.5927 11.2779C16.2658 10.2706 16.625 9.08641 16.625 7.875C16.625 6.25055 15.9797 4.69263 14.831 3.54397C13.6824 2.39531 12.1244 1.75 10.5 1.75Z" fill="#46E184"/>
</svg>
