<svg width="34" height="34" viewBox="0 0 34 34" fill="none" xmlns="http://www.w3.org/2000/svg">
<path d="M17 4.25C12.9041 4.25 9.5625 7.59156 9.5625 11.6875C9.5625 14.2152 10.8481 16.4517 12.7829 17.7969C8.42138 19.499 5.3125 23.749 5.3125 28.6875H7.4375C7.4375 24.0146 10.8279 20.1089 15.2734 19.2908L15.9375 21.25H18.0625L18.7266 19.2908C23.1721 20.1089 26.5625 24.0146 26.5625 28.6875H28.6875C28.6875 23.749 25.5786 19.499 21.2171 17.7969C23.1508 16.4517 24.4375 14.2152 24.4375 11.6875C24.4375 7.59156 21.0959 4.25 17 4.25ZM17 6.375C19.9463 6.375 22.3125 8.74119 22.3125 11.6875C22.3125 14.6338 19.9463 17 17 17C14.0537 17 11.6875 14.6338 11.6875 11.6875C11.6875 8.74119 14.0537 6.375 17 6.375ZM15.9375 22.3125L14.875 28.6875H19.125L18.0625 22.3125H15.9375Z" fill="#7367F0"/>
</svg>
